<?xml version="1.0" encoding="utf-8"?>
<!-- Svg Vector Icons : http://www.onlinewebfonts.com/icon -->
<!DOCTYPE svg PUBLIC "-//W3C//DTD SVG 1.1//EN" "http://www.w3.org/Graphics/SVG/1.1/DTD/svg11.dtd">
<svg version="1.1" xmlns="http://www.w3.org/2000/svg" xmlns:xlink="http://www.w3.org/1999/xlink" x="0px" y="0px" viewBox="0 0 1000 1000" enable-background="new 0 0 1000 1000" xml:space="preserve">
<metadata> Svg Vector Icons : http://www.onlinewebfonts.com/icon </metadata>
<g><g><g><path d="M30.4,515.5c-1.2,1.4-2.4,2.9-3.6,4.6l-3.2,4.7l0.2,5.7c2.9,74.5,22.3,145.1,57.7,210c84,154,245,249.6,420.1,249.6C765.4,990,980,775.4,980,511.7c0-75.3-17.1-147.6-50.5-213.7c-16.6-38.9,0-106.7,8.1-130.5c0.7-2.5,7-25.3,7-39.7c0-62.9-50.1-113.5-116.5-117.6c-41.1-2.4-70.8,14.9-90.5,39.4c-34.5-12.9-65.2-0.8-82.1,5.9c-2.8,1.1-5.9,2.5-9.3,4.1c-21.3,9.9-32.6,12.6-42.9,2.6C567.7,28,522.8,17.6,480.1,33.6c-21.8,8.2-30.8,25.3-37.4,37.9c-2.1,4-5.3,10.1-6.7,11c-0.4,0.1-8.4,1.4-38.5-21.3c-31.7-24-61.8-33-89.3-26.8c-25.8,5.9-41.5,23.6-48.7,33.9c-9.3,1.9-17.6,3.7-24.5,5.3c-33,7.6-34.9,8.1-67.5-18.6c-25.2-20.6-54.8-19.6-77.4,2.4c-22.6,22.2-33.9,64.8-13.7,90.4l4.9,6.2c23.9,30.1,38,50.1,26.6,80.5c-4.4,11.8-12.6,27-21.3,43.2c-21.8,40.4-46.2,85.7-38.8,123.1C27.8,425.1,6.9,470.3,30.4,515.5z M825.9,44.2c48.3,3,84.6,39,84.6,83.7c0,7.3-3.5,22.6-5.5,29.6c-1.3,3.9-32,95-6.5,154.9C930,374.6,946,441.7,946,511.7c0,245-199.3,444.3-444.3,444.3c-162.7,0-312.3-88.8-390.3-231.8C79.6,665.9,61.6,602.6,58.1,536c0.3-0.1,0.5-0.2,0.8-0.2c5.3,0,16,9.4,22.4,18.1c3.2,5.4,12.4,18.4,26.9,18.4c29.1,0,33.2-46.4,35.1-68.6c4.3-49,27.2-58.3,68-58.3c5.2,0,10.4,0.2,15.4,0.3c5,0.1,9.8,0.3,14.4,0.3c14.2,0,28,4.4,41.3,8.6c13.3,4.2,27,8.5,41.1,8.5c12.6,0,23.9-3.4,34.3-10.3c23.3-15.5,20.7-51.5,18.1-89.7c-1.8-25.7-4.5-64.5,7.3-71.1c6.7-3.7,14.4-5.5,23.6-5.5c21.7,0,46.7,10.2,66.8,18.3c8.5,3.4,16.2,6.6,22.8,8.7c24,7.6,53.8-0.3,71.9-18.9c11.5-11.9,17.5-27,17-42.6c-1.3-38.9,1.3-79.8,30.1-87.9c12.1-3.4,26.5-0.9,39.9,2c8.8,1.9,17.8,3.9,27,3.9c21.1,0,37.1-10.6,48.7-32.5c2.2-4.1,4.3-7.9,6.3-11.3l3.7-0.2l3.1-13.1C748.1,96,765.8,40.6,825.9,44.2z M695.2,129.9c-5.1,5.8-9.5,5.8-12.9,5.8c-5.5,0-12.4-1.5-19.7-3.1c-7.7-1.7-16.5-3.2-25.6-3.9C669.3,113.3,686.9,121.9,695.2,129.9z M551.4,252.9c0.3,8.1-3.9,14.2-7.5,17.9c-8.9,9.2-24.2,13.6-36,10.3c-3.8-16.4-17.3-43.5-61.6-62.2c18.9-6.7,30.3-26.9,33.6-60.1c2.3-22.7,8.3-38.1,16.2-41.3c8.6-3.5,23.7,5.3,30.5,10.6c5.4,6.5,21.1,21,51.2,19.3C548.9,175.9,550.6,227.8,551.4,252.9z M719.5,79.8c-2.9,6.7-5.4,13.6-7.2,20.5c-2.7-2-5.5-3.9-8.8-5.7c-8.2-4.4-19.3-8.1-33.2-8.3C682.8,81.3,700.1,75,719.5,79.8z M472.8,87.3c6-11.3,10.2-18.5,19.2-21.8c41-15.4,72.5,6.7,87.6,21.3c10.9,10.5,22.5,14.8,33.6,15.6c-45.9,22.2-59.9,5-60.1,4.8l-3.3-3.8c-3.6-3.1-35.7-29.5-66.3-17.4c-6.9,2.7-12.7,7.2-17.8,13.1C468.4,95.2,470.8,91.1,472.8,87.3z M315.7,67.6c17.3-3.9,37.9,3,61.3,20.7c25.9,19.5,43.6,28.2,58.4,28.2c2.7,0,5.4-0.3,7.9-0.9c7.9-1.8,13.6-5.9,18.2-10.9c-8,12.1-13.2,28.9-15.4,50.6c-2.3,22.8-8.2,30.6-11.3,31.6c-8.4,2.7-29.9-12.5-43.6-28l-1.4-1.4c-2.6-2.4-26.4-22.8-56.2-18.2c-5.1,0.8-9.9,2.3-14.5,4.5c2.5-5,4.9-8.4,4.9-8.4l1.9-3.2c1.4-3.2,13.7-32.1-2.2-52.3c-3.7-4.6-8.6-7.8-14.2-10.3C311.5,68.8,313.5,68.1,315.7,67.6z M390.1,203.8c-4.6-0.7-9-1.5-14-2.1c-25.4-3-44-9.1-54-17.8c5.2-6.2,10.8-9.9,16.7-10.9c11.2-1.9,23.4,5.8,27.9,9.4C370.3,186.6,379,195.6,390.1,203.8z M78.7,417.2l7.9-7.9l-4-10.3c-9.6-24.5,14.5-69.2,33.9-105.2c9.2-17.2,18-33.4,23.2-47.4c18.7-50-8.1-83.8-31.8-113.6l-4.8-6c-7.4-9.5-1.9-32.7,10.8-45.1c10.1-9.9,20.3-10,32.1-0.4c43.5,35.6,56.9,34.5,96.6,25.4c8.3-1.9,18.1-4.2,30.3-6.5c16.8-3.2,23.2-0.5,24.1,0.7c1.6,2,0.7,10-1.6,16.1c-5.6,8.2-25,40.3-11.7,71.1c11.1,25.9,40.8,41.7,88.4,47.3c39.4,4.6,64.7,14.3,80.5,25c-14.7-4.7-30.2-8.2-45.7-8.2c-14.9,0-28.4,3.3-40.1,9.7c-30.8,17-27.8,60.8-24.8,103.2c1.2,17.7,3.8,54.5-3,59c-12,8-27.5,3.6-46.3-2.3c-15.1-4.7-32.1-10.1-51.5-10.1c-4.3,0-8.8-0.1-13.5-0.3c-5.3-0.2-10.8-0.3-16.3-0.3c-25.7,0-94,0-101.9,89.4c-1.2,13.5-2.7,22.7-4.1,28.8c-7.7-9.3-24-25.8-43.5-27.4C37.8,459.6,77,419,78.7,417.2z"/><path d="M826,715.5c28.8-69.1,36.3-155.5,10.5-224.2c-10.9-29-48.1-6.6-37.2,22.5c21.7,57.8,13.1,127.8-10.9,185.3C776,728.8,813.8,744.8,826,715.5z"/><path d="M381.8,816.9C308.4,781,268.4,701.6,251.3,618.7c-6.6-32-51.6-27.4-45,4.9c20.6,100.3,69.6,195.7,158.4,239.1C392.2,876.1,409.2,830.3,381.8,816.9z"/><path d="M584,560c16.4,79.9,14.1,158.9-1.3,237.6c-6.2,31.8,33.6,42.8,39.8,11.3c17.2-87.9,18-175.8-0.3-264.7C615.6,512.2,577.4,528.2,584,560z"/></g></g><g></g><g></g><g></g><g></g><g></g><g></g><g></g><g></g><g></g><g></g><g></g><g></g><g></g><g></g><g></g></g>
</svg>