<?xml version="1.0" encoding="utf-8"?>
<!-- Svg Vector Icons : http://www.onlinewebfonts.com/icon -->
<!DOCTYPE svg PUBLIC "-//W3C//DTD SVG 1.1//EN" "http://www.w3.org/Graphics/SVG/1.1/DTD/svg11.dtd">
<svg version="1.1" xmlns="http://www.w3.org/2000/svg" xmlns:xlink="http://www.w3.org/1999/xlink" x="0px" y="0px" viewBox="0 0 1000 1000" enable-background="new 0 0 1000 1000" xml:space="preserve">
<metadata> Svg Vector Icons : http://www.onlinewebfonts.com/icon </metadata>
<g><path d="M957.6,393.8c-16.3,16.3-42.9,16.3-57.2,0l-14.3-14.3c-49-47-126.6-47-173.5,0l-14.3,14.3l0,0L684,408.1l28.6,28.6l0,0c49,47,49,124.5,0,171.5c-6.1,6.1-24.5,20.4-22.5,20.4l0,0L91.9,983.9l0,0c0,0-2,0-4.1,2c-2,2-4.1,2-6.1,2c-2,0-6.1,2-8.2,2c-2,0-4.1,0-6.1,0c-4.1,0-6.1,0-8.2-2c-2,0-4.1,0-4.1-2c-4.1-2-8.2-4.1-12.2-8.2c-4.1-4.1-6.1-8.2-8.2-12.3c0-2,0-4.1-2-4.1c0-2-2-6.1-2-8.2c0-2,0-4.1,0-6.1c0-2,0-6.1,2-8.2c0-2,2-4.1,2-6.1c0,0,0-2,2-2l0,0l363.4-586l0,0c0,2,14.3-14.3,20.4-22.5c49-47,126.6-47,173.5,0l28.6,28.6l14.3-14.3c49-47,49-124.5,0-171.5l-42.9-42.9c-16.3-16.3-16.3-40.8,0-57.2c16.3-16.3,42.9-16.3,57.2,0l42.9,42.9c24.5,22.5,40.8,51,49,79.6c2-34.7-8.2-67.4-34.7-93.9l-14.3-14.3c-16.3-16.3-16.3-40.8,0-57.2c16.3-16.3,42.9-16.3,57.2,0l14.3,14.3c63.3,61.2,75.5,153.1,40.8,226.6c49,2,96,22.5,132.7,59.2l14.3,14.3C973.9,351,973.9,377.5,957.6,393.8z M477.8,379.5c-6.1,6.1-10.2,10.2-10.2,10.2l-14.3,24.5l67.4,67.4c16.3,16.3,16.3,40.8,0,57.2c-16.3,16.3-42.9,16.3-57.2,0l-55.1-53.1L194,828.7L420.6,694L392,665.4c-16.3-16.3-16.3-40.8,0-57.2c16.3-16.3,42.9-16.3,57.2,0l42.9,42.9l151.1-89.8c0,0,2-4.1,10.2-10.2c16.3-16.3,16.3-40.8,0-57.2l-57.2-57.2L539,379.5C520.7,363.2,494.1,363.2,477.8,379.5z"/></g>
</svg>